<?xml version="1.0" standalone="no"?>
<!DOCTYPE svg PUBLIC "-//W3C//DTD SVG 1.1//EN" "http://www.w3.org/Graphics/SVG/1.1/DTD/svg11.dtd" >
<svg xmlns="http://www.w3.org/2000/svg">
<metadata>
This is a custom SVG font generated by IcoMoon.
<iconset grid="16"></iconset>
</metadata>
<defs>
<font id="geeklove" horiz-adv-x="512" >
<font-face units-per-em="512" ascent="480" descent="-32" />
<missing-glyph horiz-adv-x="512" />
<glyph unicode="&#xe000;" d="M 437.319,221.458L 221.466,437.292L 13.70,436.498l 0.318-191.241l 223.55-223.532c 14.018-14.036, 36.582-14.23, 50.37-0.424l 149.786,149.804
		C 451.513,184.894, 451.337,207.439, 437.319,221.458z M 103.406,313.106c-19.491,0.00-35.31,15.819-35.31,35.31c0.00,19.491, 15.819,35.31, 35.31,35.31s 35.31-15.801, 35.31-35.31
		C 138.717,328.925, 122.898,313.106, 103.406,313.106zM 487.654,221.034L 271.819,436.868l-25.953-0.088l 216.611-215.534c 14.036-14.018, 14.212-36.546, 0.406-50.353l-149.786-149.822
		c-3.655-3.655-7.962-6.25-12.518-7.945c 12.729-4.89, 27.56-2.383, 37.694,7.733l 149.822,149.822C 501.901,184.47, 501.689,207.016, 487.654,221.034
		z"  />
<glyph unicode="&#xe001;" d="M 483.946,323.734c-6.091,16.172-14.301,29.873-24.647,41.154c-21.769,24.329-47.828,36.493-78.195,36.493c-31.779,0.00-57.662-11.07-77.63-33.245
		c-8.227-9.092-14.742-19.88-19.562-32.415c-4.802-12.553-7.203-25.00-7.203-37.323c0.00-26.165, 7.115-48.499, 21.398-67.037
		c 14.265-18.538, 32.998-29.414, 56.196-32.697l 8.58-0.53l 6.409-1.095c 10.699-1.448, 16.066-5.632, 16.066-12.535c0.00-7.274-6.974-18.714-20.904-34.322
		c-14.636-15.996-38.382-32.874-71.221-50.67c-13.577-7.256-20.356-16.349-20.356-27.26c0.00-6.903, 2.313-12.623, 6.974-17.178
		c 4.661-4.52, 10.54-6.797, 17.69-6.797c 17.849,0.00, 42.478,10.54, 73.94,31.603c 37.146,24.70, 66.684,54.766, 88.647,90.183
		c 21.945,35.416, 32.927,70.374, 32.927,104.889C 493.056,291.302, 490.019,307.562, 483.946,323.734zM 203.811,364.871c-21.822,24.329-48.11,36.493-78.866,36.493c-31.479,0.00-57.432-11.07-77.806-33.245
		C 38.912,359.044, 32.38,348.345, 27.56,335.987c-4.82-12.376-7.239-24.894-7.239-37.588c0.00-26.165, 7.256-48.41, 21.751-66.754
		c 14.495-18.361, 33.404-29.325, 56.691-32.962l 8.068-0.53l 6.991-1.095c 10.717-1.448, 16.102-5.632, 16.102-12.535c0.00-7.274-7.168-18.714-21.504-34.322
		c-15.06-16.719-38.877-33.598-71.486-50.67c-13.612-7.256-20.427-16.349-20.427-27.26c0.00-6.903, 2.33-12.623, 6.974-17.178
		c 4.661-4.52, 10.575-6.797, 17.726-6.797c 17.902,0.00, 42.584,10.54, 74.063,31.603c 37.182,24.70, 66.895,54.766, 89.07,90.183
		c 22.21,35.416, 33.298,70.374, 33.298,104.889c0.00,16.349-3.054,32.591-9.128,48.764C 222.42,339.889, 214.193,353.607, 203.811,364.871z"  />
<glyph unicode="&#xe002;" d="M 256.00,480.00C 114.617,480.00,0.00,365.383,0.00,224.00S 114.617-32.00, 256.00-32.00C 397.383-32.00, 512.00,82.617, 512.00,224.00S 397.383,480.00, 256.00,480.00z M 228.564,194.639
		c-12.076-18.979-28.231-35.081-48.463-48.322c-17.126-11.299-30.543-16.931-40.289-16.931c-3.902,0.00-7.115,1.201-9.64,3.637
		s-3.796,5.508-3.796,9.198c0.00,5.862, 3.69,10.717, 11.105,14.618c 17.743,9.145, 30.702,18.185, 38.894,27.154
		c 7.786,8.369, 11.705,14.495, 11.705,18.397c0.00,3.69-2.931,5.932-8.775,6.727l-3.796,0.583l-4.396,0.282
		c-12.676,1.96-22.934,7.821-30.844,17.673c-7.892,9.852-11.829,21.751-11.829,35.769c0.00,6.815, 1.306,13.524, 3.937,20.162
		c 2.631,6.621, 6.179,12.359, 10.664,17.231C 154.13,312.664, 168.254,318.614, 185.379,318.614c 16.737,0.00, 31.02-6.532, 42.92-19.58
		c 5.614-6.038, 10.099-13.383, 13.418-22.034c 3.319-8.669, 4.961-17.373, 4.961-26.13C 246.678,232.369, 240.64,213.619, 228.564,194.639z
		 M 367.704,194.639c-11.953-18.979-28.036-35.081-48.234-48.322c-17.09-11.299-30.508-16.931-40.201-16.931c-3.884,0.00-7.08,1.201-9.622,3.637
		c-2.525,2.436-3.778,5.508-3.778,9.198c0.00,5.862, 3.69,10.717, 11.07,14.618c 17.867,9.534, 30.773,18.591, 38.735,27.154
		c 7.592,8.369, 11.37,14.495, 11.37,18.397c0.00,3.69-2.913,5.932-8.739,6.727l-3.478,0.583l-4.661,0.282
		c-12.623,1.766-22.828,7.592-30.579,17.514c-7.751,9.94-11.635,21.91-11.635,35.928c0.00,6.621, 1.289,13.277, 3.937,20.003
		c 2.613,6.727, 6.162,12.518, 10.646,17.373c 10.858,11.882, 24.947,17.832, 42.249,17.832c 16.525,0.00, 30.685-6.532, 42.514-19.58
		c 5.632-6.038, 10.099-13.383, 13.418-22.034c 3.319-8.669, 4.943-17.373, 4.943-26.13C 385.624,232.369, 379.639,213.619, 367.704,194.639z"  />
<glyph unicode="&#xe003;" d="M 256.00,480.00C 114.617,480.00,0.00,365.383,0.00,224.00C0.00,82.617, 114.617-32.00, 256.00-32.00C 397.383-32.00, 512.00,82.617, 512.00,224.00C 512.00,365.383, 397.383,480.00, 256.00,480.00z
		 M 256.441,82.653c0.00,0.00-150.563,89.106-150.563,160.874c0.00,43.238, 27.789,86.493, 80.666,86.493c 48.393,0.00, 69.897-44.226, 69.897-44.226
		s 18.82,44.226, 69.897,44.226c 51.112,0.00, 79.766-42.39, 79.766-86.493C 406.104,170.893, 256.441,82.653, 256.441,82.653z"  />
<glyph unicode="&#xe004;" d="M 427.785,91.039c-10.823,10.77-22.616,30.12-80.066,38.93c-57.45,8.828-47.245,39.389-47.651,41.242
	c 0.106,4.696, 2.101,24.629, 2.101,24.629s 18.52,15.996, 27.313,42.09c 13.859,9.11, 19.138,10.364, 21.451,20.868c0.00,0.00, 4.696,39.636-10.205,39.636
	c0.00,0.00-6.215-1.042-4.237,8.245c 1.995,9.287, 1.342,38.294, 0.353,48.622s 1.889,39.812-18.926,43.944c-14.248,2.754-15.89-1.43-22.828-0.388
	c-6.974,1.024-15.236,19.738-28.142,19.738l-26.818-4.467c-12.906,0.00-10.929-4.131-17.867-5.155c-6.938-1.042, 1.412,1.042-19.438-3.09
	S 174.61,373.857, 173.621,363.529c-0.989-10.311-1.236-39.336-0.583-54.802c 1.977-9.287-4.961-9.287-4.961-9.287
	c-12.482,0.83-6.868-39.636-6.868-39.636c 1.801-9.975-0.653-14.936, 17.849-22.669c 8.81-26.094, 31.214-39.247, 31.214-39.247
	s 1.112-16.737, 1.465-28.654c-1.871,0.971, 6.038-30.455-51.412-39.283c-57.45-8.81-68.449-28.16-79.272-38.93s-10.01-60.504-10.01-60.504
	l 369.964,0.00 C 441.009,30.535, 438.66,80.252, 427.785,91.039z"  />
<glyph unicode="&#xe005;" d="M 106.355,426.364L 106.355,21.636L 255.576,171.723L 405.663,21.636L 405.663,426.364 z"  />
<glyph unicode="&#xe006;" d="M 257.783,453.517c-126.764,0.00-229.517-102.753-229.517-229.517c0.00-126.764, 102.753-229.517, 229.517-229.517c 126.764,0.00, 229.517,102.753, 229.517,229.517C 487.30,350.764, 384.53,453.517, 257.783,453.517z
		 M 255.912,38.144c-102.382,0.00-185.379,82.997-185.379,185.379s 82.997,185.379, 185.379,185.379s 185.379-82.997, 185.379-185.379S 358.294,38.144, 255.912,38.144zM 309.478,212.86L 256.883,212.86 l0.00,88.858 c0.00,9.64-7.821,17.461-17.479,17.461c-9.64,0.00-17.479-7.821-17.479-17.461l0.00-106.319 
		c0.00-9.64, 7.821-17.461, 17.479-17.461l 70.073,0.00 c 9.657,0.00, 17.461,7.821, 17.461,17.461C 326.956,205.056, 319.135,212.86, 309.478,212.86z"  />
<glyph unicode="&#xe007;" d="M 492.401,178.473L 492.401,434.207 c0.00,25.293-20.48,45.793-45.793,45.793L 45.793,480.00 C 20.521,480.00,0.00,459.50,0.00,434.207l0.00-255.713 c0.00-25.272, 20.521-45.793, 45.793-45.793
		l 76.37,0.00 l 0.02-105.206l 116.818,105.206l 207.585,0.00 C 471.921,132.68, 492.401,153.201, 492.401,178.473zM 568.648,379.464l-57.283,0.00 c0.00,0.00,0.00-204.227,0.00-223.416s-24.924-43.848-44.114-43.848s-224.154-1.147-224.154-1.147
		c0.00-25.293, 20.521-40.694, 45.793-40.694l 88.248,0.00 l 115.139-104.489l-0.143,104.489l 76.513,0.00 c 25.313,0.00, 45.793,15.401, 45.793,40.694L 614.441,334.92 
		C 614.441,360.233, 593.961,379.464, 568.648,379.464z" horiz-adv-x="614.4000000000001"  />
<glyph unicode="&#xe008;" d="M 78.355,328.979c 24.045,0.00, 42.97,6.58, 56.794,19.759c 13.824,13.16, 20.708,31.744, 20.708,55.713c0.00,24.273-6.77,42.932-20.252,55.96
		C 122.084,473.439, 103.007,479.962, 78.355,479.962c-25.524,0.00-44.942-6.372-58.292-19.096C 6.694,448.123, 0.019,429.331, 0.019,404.471
		c0.00-24.273, 6.808-42.932, 20.48-55.941C 34.133,335.483, 53.438,328.979, 78.355,328.979zM 78.355,113.18c-25.524,0.00-44.942-6.372-58.292-19.115c-13.369-12.743-20.044-31.516-20.044-56.415c0.00-23.969, 6.808-42.553, 20.48-55.713
		c 13.634-13.179, 32.92-19.778, 57.856-19.778c 24.348,0.00, 43.349,6.732, 57.003,20.215c 13.634,13.445, 20.48,31.896, 20.48,55.258
		c0.00,24.292-6.77,42.932-20.252,55.96C 122.084,106.657, 103.007,113.18, 78.355,113.18z" horiz-adv-x="151.7037037037037"  />
<glyph unicode="&#xe009;" d="M 460.80,275.20L 307.20,275.20 L 307.20,428.80 C 307.20,457.077, 284.292,480.00, 256.00,480.00C 227.738,480.00, 204.80,457.077, 204.80,428.80L 204.80,275.20 L 51.20,275.20 c-28.262,0.00-51.185-22.923-51.185-51.20
	c0.00-28.277, 22.923-51.20, 51.185-51.20L 204.80,172.80 l0.00-153.60 c0.00-28.292, 22.938-51.20, 51.20-51.20c 28.292,0.00, 51.20,22.908, 51.20,51.20L 307.20,172.80 l 153.60,0.00 c 28.292,0.00, 51.20,22.923, 51.20,51.20
	C 512.00,252.277, 489.092,275.20, 460.80,275.20z"  />
<glyph unicode="&#xe00a;" d="M 180.766,480.00C 80.956,480.00,0.00,402.056,0.00,305.89c0.00-42.827, 53.941-133.15, 53.941-133.15l 126.825-204.83l 119.567,204.83c0.00,0.00, 61.229,90.955, 61.229,133.15
		C 361.562,402.056, 280.636,480.00, 180.766,480.00z M 180.766,216.29c-58.729,0.00-106.345,45.839-106.345,102.40s 47.616,102.40, 106.345,102.40c 58.729,0.00, 106.345-45.839, 106.345-102.40
		S 239.526,216.29, 180.766,216.29z" horiz-adv-x="361.4117647058823"  />
<glyph unicode="&#xe00b;" d="M 451.328,480.00C 346.726,480.00, 308.224,388.352, 308.224,388.352S 264.192,480.00, 165.12,480.00C 56.883,480.00,0.00,390.40,0.00,300.80c0.00-148.685, 308.224-333.261, 308.224-333.261
	s 306.381,182.784, 306.381,333.261C 614.605,392.192, 555.93,480.00, 451.328,480.00z" horiz-adv-x="614.4"  />
<glyph unicode="&#xe00c;" d="M 285.427,180.992L 250.099,180.992 L 250.099,233.216 c0.00,9.593-7.896,17.408-17.651,17.408S 214.797,242.809, 214.797,233.216l0.00-69.605 
		c0.00-9.593, 7.896-17.408, 17.651-17.408l 52.979,0.00 c 9.755,0.00, 17.651,7.788, 17.651,17.408S 295.181,180.992, 285.427,180.992zM 379.554,433.435c-35.84,0.00-67.368-17.704-86.447-44.625c 74.321-16.357, 134.117-67.719, 158.612-134.656c 20.372,18.944, 33.253,45.595, 33.253,75.372
		C 484.999,386.924, 437.787,433.435, 379.554,433.435zM 191.865,388.837C 172.84,415.757, 141.258,433.435, 105.445,433.435C 47.212,433.435,0.00,386.924,0.00,329.553C0.00,299.776, 12.881,273.125, 33.253,254.181
		C 57.775,321.118, 117.544,372.48, 191.865,388.837zM 430.942,177.624c0.00,100.675-80.815,182.541-181.949,186.611L 248.994,429.555 c 10.24,3.611, 17.651,13.016, 17.651,24.333C 266.644,468.305, 254.787,480.00, 240.155,480.00
		S 213.666,468.305, 213.666,453.915c0.00-11.318, 7.411-20.749, 17.651-24.333L 231.316,364.126 c-100.217-5.066-179.928-86.501-179.928-186.503c0.00-42.307, 14.417-81.219, 38.481-112.532
		L 45.002-11.493l 36.514-20.776l 38.616,65.886c 32.849-26.84, 75.021-42.981, 121.048-42.981c 46.269,0.00, 88.657,16.357, 121.587,43.466l 37.619-64.216
		l 36.514,20.776l-43.951,75.048C 416.714,96.943, 430.942,135.613, 430.942,177.624z M 241.179,32.189c-81.516,0.00-147.591,65.132-147.591,145.435
		c0.00,80.33, 66.075,145.435, 147.591,145.435c 81.516,0.00, 147.618-65.132, 147.618-145.435C 388.77,97.32, 322.695,32.189, 241.179,32.189z" horiz-adv-x="458.1052631578947"  />
<glyph unicode="&#xe00d;" d="M 159.514,91.597L 212.685,91.597L 212.685,38.63L 159.514,38.63zM 159.514,179.866L 212.685,179.866L 212.685,126.899L 159.514,126.899zM 70.886,268.134L 124.058,268.134L 124.058,215.168L 70.886,215.168zM 425.344,427.034L 389.888,427.034 l0.00-17.638 c0.00-29.261-23.808-52.966-53.171-52.966s-53.171,23.706-53.171,52.966L 283.546,427.034 L 177.229,427.034 l0.00-17.638 
		c0.00-29.261-23.808-52.966-53.171-52.966S 70.886,380.134, 70.886,409.37L 70.886,427.034 L 35.456,427.034 C 15.872,427.034,0.00,411.213,0.00,391.731l0.00-388.429 
		C0.00-16.179, 15.872-32.00, 35.456-32.00l 389.888,0.00 C 444.928-32.00, 460.80-16.179, 460.80,3.302L 460.80,391.731 C 460.80,411.213, 444.928,427.034, 425.344,427.034z M 425.344,3.302L 35.456,3.302 
		L 35.456,303.437 l 389.888,0.00 L 425.344,3.302 zM 70.886,179.866L 124.058,179.866L 124.058,126.899L 70.886,126.899zM 159.514,268.134L 212.685,268.134L 212.685,215.168L 159.514,215.168zM 70.886,91.597L 124.058,91.597L 124.058,38.63L 70.886,38.63zM 336.742,179.866L 389.914,179.866L 389.914,126.899L 336.742,126.899zM 248.115,91.597L 301.286,91.597L 301.286,38.63L 248.115,38.63zM 336.179,374.067c 19.251,0.00, 34.893,15.565, 34.893,34.765L 371.072,445.235 c0.00,19.20-15.616,34.765-34.893,34.765c-19.277,0.00-34.893-15.565-34.893-34.765
		L 301.286,408.832 C 301.286,389.632, 316.902,374.067, 336.179,374.067zM 123.494,374.067c 19.277,0.00, 34.893,15.565, 34.893,34.765L 158.387,445.235 C 158.413,464.435, 142.771,480.00, 123.494,480.00C 104.243,480.00, 88.602,464.435, 88.602,445.235L 88.602,408.832 
		C 88.602,389.632, 104.243,374.067, 123.494,374.067zM 336.742,268.134L 389.914,268.134L 389.914,215.168L 336.742,215.168zM 248.115,179.866L 301.286,179.866L 301.286,126.899L 248.115,126.899zM 336.742,91.597L 389.914,91.597L 389.914,38.63L 336.742,38.63zM 248.115,268.134L 301.286,268.134L 301.286,215.168L 248.115,215.168z" horiz-adv-x="460.8"  />
<glyph unicode="&#xe00e;" d="M 462.067,139.466L 806.157,422.548C 806.157,479.434, 752.128,480.00, 752.128,480.00L 53.167,480.00 c-54.218,0.00-51.928-56.563-51.928-56.563l 347.379-283.998
		C 413.48,75.466, 462.067,139.466, 462.067,139.466zM 641.051,253.588l 109.568-227.355l-145.893,196.554l-114.122-96.795c-45.029-53.329-88.872-46.215-88.872-46.215
		c-52.224,0.00-86.474,47.993-86.474,47.993L 202.671,223.003L 58.152,27.015L 171.655,249.25L0.00,394.442l0.00-369.772 c0.00-56.886, 54.029-56.886, 54.029-56.886l 695.404,0.00 
		c 52.251,0.00, 57.667,55.107, 57.667,55.107L 807.101,394.442 L 641.051,253.588z" horiz-adv-x="781.4736842105262"  />
<glyph unicode="&#xe00f;" d="M0.00,480.00L 768.00,480.00L 768.00,394.667L0.00,394.667zM0.00,266.667L 768.00,266.667L 768.00,181.333L0.00,181.333zM0.00,53.333L 768.00,53.333L 768.00-32.00L0.00-32.00z" horiz-adv-x="768"  />
<glyph unicode="&#xe010;" d="M 204.80,393.762L 51.20,393.762 L 50.142,461.722c0.00,0.00-1.075,18.278-17.067,18.278c0.00,0.00-17.869-0.905-16.794-17.971c0.00,0.00, 0.495-62.618-0.171-82.176
		C 6.195,370.50,0.00,357.257,0.00,342.562l0.00-324.267 c0.00-28.279, 22.921-51.20, 51.20-51.20l 153.60,0.00 c 28.279,0.00, 51.20,22.921, 51.20,51.20l0.00,324.267 C 256.00,370.842, 233.079,393.762, 204.80,393.762z M 85.333,1.229L 34.133,1.229 l0.00,34.133 l 51.20,0.00 
		L 85.333,1.229 z M 85.333,52.429L 34.133,52.429 l0.00,34.133 l 51.20,0.00 L 85.333,52.429 z M 85.333,103.629L 34.133,103.629 l0.00,34.133 l 51.20,0.00 L 85.333,103.629 z M 85.333,154.829L 34.133,154.829 l0.00,34.133 l 51.20,0.00 L 85.333,154.829 z M 153.60,1.229L 102.40,1.229 l0.00,34.133 l 51.20,0.00 L 153.60,1.229 z M 153.60,52.429L 102.40,52.429 l0.00,34.133 l 51.20,0.00 
		L 153.60,52.429 z M 153.60,103.629L 102.40,103.629 l0.00,34.133 l 51.20,0.00 L 153.60,103.629 z M 153.60,154.829L 102.40,154.829 l0.00,34.133 l 51.20,0.00 L 153.60,154.829 z M 221.867,1.229l-51.20,0.00 l0.00,34.133 l 51.20,0.00 L 221.867,1.229 z M 221.867,52.429l-51.20,0.00 l0.00,34.133 l 51.20,0.00 L 221.867,52.429 z M 221.867,103.629l-51.20,0.00 
		l0.00,34.133 l 51.20,0.00 L 221.867,103.629 z M 221.867,154.829l-51.20,0.00 l0.00,34.133 l 51.20,0.00 L 221.867,154.829 z M 221.867,240.162c0.00-9.421-7.646-17.067-17.067-17.067L 51.20,223.095 c-9.421,0.00-17.067,7.646-17.067,17.067l0.00,102.40 c0.00,9.421, 7.646,17.067, 17.067,17.067l 153.60,0.00 
		c 9.421,0.00, 17.067-7.646, 17.067-17.067L 221.867,240.162 z" horiz-adv-x="256"  />
<glyph unicode="&#xe011;" d="M 256.00-32.00C 397.38-32.00, 512.00,82.62, 512.00,224.00S 397.38,480.00, 256.00,480.00S0.00,365.38,0.00,224.00S 114.62-32.00, 256.00-32.00z M 194.037,246.96
		c 25.85,26.01, 51.712,52.031, 77.574,78.04c 30.015,30.197, 76.208-16.293, 46.205-46.478c-18.102-18.216-36.204-36.42-54.295-54.636
		c 17.977-18.079, 35.931-36.147, 53.897-54.226c 29.798-29.969-16.748-76.80-46.535-46.82c-25.668,25.816-51.337,51.644-77.005,77.46
		C 181.271,212.975, 181.339,234.194, 194.037,246.96z"  />
<glyph unicode="&#xe012;" d="M 256.00,480.00C 114.62,480.00,0.00,365.38,0.00,224.00S 114.62-32.00, 256.00-32.00S 512.00,82.62, 512.00,224.00S 397.38,480.00, 256.00,480.00z M 317.963,201.04
		c-25.85-26.01-51.712-52.031-77.574-78.04c-30.015-30.197-76.208,16.293-46.205,46.478c 18.102,18.216, 36.204,36.42, 54.295,54.636
		c-17.977,18.079-35.931,36.147-53.897,54.226c-29.798,29.969, 16.748,76.80, 46.535,46.82c 25.668-25.816, 51.337-51.644, 77.005-77.46
		C 330.729,235.025, 330.661,213.806, 317.963,201.04z"  />
<glyph unicode="&#xe013;" d="M 256.00,480.00C 114.62,480.00,0.00,365.38,0.00,224.00S 114.62-32.00, 256.00-32.00S 512.00,82.62, 512.00,224.00S 397.38,480.00, 256.00,480.00z M 360.983,157.895
		c 4.289-4.289, 4.289-11.264,0.00-15.553l-23.324-23.324c-4.289-4.289-11.253-4.289-15.553,0.00l-66.105,66.105l-66.105-66.105
		c-4.301-4.289-11.264-4.289-15.553,0.00l-23.324,23.324c-4.289,4.289-4.289,11.264,0.00,15.553l 66.105,66.105l-66.105,66.105
		c-4.289,4.289-4.289,11.253,0.00,15.553l 23.324,23.324c 4.289,4.301, 11.253,4.301, 15.553,0.00l 66.105-66.105l 66.105,66.105
		c 4.289,4.301, 11.253,4.301, 15.553,0.00l 23.324-23.324c 4.289-4.289, 4.289-11.253,0.00-15.553l-66.105-66.105L 360.983,157.895z"  />
<glyph unicode="&#xe014;" d="M 2304.00,480.00l-768.00,0.00 l-256.00,0.00 L 1024.00,480.00 L 256.00,480.00 C 114.688,480.00,0.00,365.312,0.00,224.00s 114.688-256.00, 256.00-256.00l 768.00,0.00 l 256.00,0.00 l 256.00,0.00 l 768.00,0.00 c 141.312,0.00, 256.00,114.688, 256.00,256.00S 2445.312,480.00, 2304.00,480.00z" horiz-adv-x="2560"  />
<glyph unicode="&#xe015;" d="M 460.80,275.20l-153.60,0.00 L 307.20,428.80 c0.00,28.262-22.938,51.20-51.20,51.20S 204.80,457.062, 204.80,428.80l0.00-153.60 L 51.20,275.20 c-28.262,0.00-51.20-22.938-51.20-51.20s 22.938-51.20, 51.20-51.20l 153.60,0.00 l0.00-153.60 c0.00-28.288, 22.938-51.20, 51.20-51.20s 51.20,22.938, 51.20,51.20l0.00,153.60 
	l 153.60,0.00 c 28.262,0.00, 51.20,22.938, 51.20,51.20S 489.062,275.20, 460.80,275.20z"  />
<glyph unicode="&#x20;" horiz-adv-x="256" />
<glyph class="hidden" unicode="&#xf000;" d="M0,480L 512 -32L0 -32 z" horiz-adv-x="0" />
</font>
</defs>
</svg>
